/* XPM */
static char * collectible_xpm[] = {
"32 32 363 2",
"  	c None",
". 	c #E4CFDE",
"+ 	c #D6B9CB",
"@ 	c #D19FBD",
"# 	c #F0E1EA",
"$ 	c #E3D6DE",
"% 	c #BB5A99",
"& 	c #E4C2D9",
"* 	c #D4C0CC",
"= 	c #E0D5DE",
"- 	c #C24797",
"; 	c #DB9CC3",
"> 	c #CAA6BD",
", 	c #EFECED",
"' 	c #E3BDD6",
") 	c #CEB3C3",
"! 	c #CD51A4",
"~ 	c #CC6FAA",
"{ 	c #AF5E8C",
"] 	c #EAE3E8",
"^ 	c #EDDBE8",
"/ 	c #E9CADE",
"( 	c #F3F3F3",
"_ 	c #EEEAEC",
": 	c #E3D9E0",
"< 	c #F6EDF3",
"[ 	c #C390AD",
"} 	c #D154A9",
"| 	c #BD4595",
"1 	c #D3B0C7",
"2 	c #A44A82",
"3 	c #ECDFEA",
"4 	c #CB72A6",
"5 	c #DDC7D6",
"6 	c #D3BFCD",
"7 	c #F6F3F6",
"8 	c #9C8293",
"9 	c #723959",
"0 	c #C5A3B6",
"a 	c #F5EEF3",
"b 	c #B36D97",
"c 	c #D057A9",
"d 	c #B93F8F",
"e 	c #B85794",
"f 	c #943C75",
"g 	c #B46096",
"h 	c #C84699",
"i 	c #A05A85",
"j 	c #E5E0E4",
"k 	c #F3F1F5",
"l 	c #80586E",
"m 	c #811E5B",
"n 	c #CCA6BA",
"o 	c #AF6694",
"p 	c #D354A7",
"q 	c #AD3A85",
"r 	c #A63F7D",
"s 	c #A9357B",
"t 	c #DC55AF",
"u 	c #C4479A",
"v 	c #AF839F",
"w 	c #E9DEE4",
"x 	c #E0D3DA",
"y 	c #CCBBC3",
"z 	c #891D62",
"A 	c #9C3774",
"B 	c #EEE6EE",
"C 	c #A6688F",
"D 	c #CC4EA4",
"E 	c #A4317C",
"F 	c #97286C",
"G 	c #CF4AA3",
"H 	c #EA60BD",
"I 	c #BB4191",
"J 	c #923E70",
"K 	c #AB7E99",
"L 	c #F3EBEF",
"M 	c #902468",
"N 	c #9B2470",
"O 	c #CCB4C3",
"P 	c #A57291",
"Q 	c #BE4294",
"R 	c #98266F",
"S 	c #B13181",
"T 	c #E352B2",
"U 	c #E55BB5",
"V 	c #AD3A83",
"W 	c #B16691",
"X 	c #F0E8EE",
"Y 	c #E5D8E2",
"Z 	c #CA9CBE",
"` 	c #A4397D",
" .	c #9A216F",
"..	c #9A6D85",
"+.	c #B68AA6",
"@.	c #AC3382",
"#.	c #891A60",
"$.	c #C33D92",
"%.	c #DE44A9",
"&.	c #DB49A5",
"*.	c #983971",
"=.	c #DDCCDA",
"-.	c #D5BFCF",
";.	c #F1EAF0",
">.	c #C9A7BF",
",.	c #B23489",
"'.	c #C23596",
").	c #AD2A83",
"!.	c #981E72",
"~.	c #721151",
"{.	c #A2728F",
"].	c #A22F7C",
"^.	c #791455",
"/.	c #B72F84",
"(.	c #CC3695",
"_.	c #B62E83",
":.	c #E1D5DC",
"<.	c #E9DBE3",
"[.	c #B85091",
"}.	c #B6518B",
"|.	c #C63799",
"1.	c #D13CA6",
"2.	c #C63699",
"3.	c #AE2781",
"4.	c #891564",
"5.	c #69094B",
"6.	c #875074",
"7.	c #832263",
"8.	c #6F114D",
"9.	c #A0206F",
"0.	c #941463",
"a.	c #AD7396",
"b.	c #DDC9D6",
"c.	c #D9B8CC",
"d.	c #D7B8CA",
"e.	c #E4CFDB",
"f.	c #E3D8E2",
"g.	c #F0E6ED",
"h.	c #CE8AB1",
"i.	c #D83CA7",
"j.	c #DD3FA6",
"k.	c #D63AA2",
"l.	c #C3359A",
"m.	c #B7328E",
"n.	c #A32679",
"o.	c #7E135A",
"p.	c #845875",
"q.	c #76295A",
"r.	c #690F49",
"s.	c #7B0951",
"t.	c #7F0C56",
"u.	c #921865",
"v.	c #AE2F82",
"w.	c #C23B95",
"x.	c #C93D99",
"y.	c #BE348F",
"z.	c #B8488F",
"A.	c #E5D0E0",
"B.	c #ECE6EB",
"C.	c #BF5A99",
"D.	c #D241A7",
"E.	c #D547AB",
"F.	c #D648AB",
"G.	c #D94AAE",
"H.	c #C63C9A",
"I.	c #8D1B66",
"J.	c #6E3C5C",
"K.	c #A9869F",
"L.	c #670F4B",
"M.	c #6B0749",
"N.	c #901F69",
"O.	c #C13F95",
"P.	c #D94EAA",
"Q.	c #DF50AF",
"R.	c #CE47A4",
"S.	c #B92C86",
"T.	c #D8BBCD",
"U.	c #F8F4F2",
"V.	c #E9DEE6",
"W.	c #AC5C8E",
"X.	c #AD3187",
"Y.	c #BC3E98",
"Z.	c #C13D9B",
"`.	c #B22F8A",
" +	c #8C1E68",
".+	c #751858",
"++	c #671F4A",
"@+	c #67174E",
"#+	c #6F0A4C",
"$+	c #921C68",
"%+	c #D14BA5",
"&+	c #E85ABA",
"*+	c #D54AA8",
"=+	c #B83286",
"-+	c #CFA8C0",
";+	c #F2EFF2",
">+	c #CFB9CA",
",+	c #984F7E",
"'+	c #A02C7D",
")+	c #A12A7D",
"!+	c #7B155B",
"~+	c #5E1F48",
"{+	c #701B54",
"]+	c #924075",
"^+	c #6C0847",
"/+	c #8A1460",
"(+	c #AA2A7B",
"_+	c #AD2679",
":+	c #AD3680",
"<+	c #DEC0D5",
"[+	c #F5EBF1",
"}+	c #DDD3DA",
"|+	c #875473",
"1+	c #5D1743",
"2+	c #7D3A63",
"3+	c #5C0640",
"4+	c #6E2753",
"5+	c #530637",
"6+	c #740849",
"7+	c #800A52",
"8+	c #902065",
"9+	c #85446D",
"0+	c #9A8291",
"a+	c #C197AC",
"b+	c #DCB9CF",
"c+	c #E5E0E6",
"d+	c #7B3F61",
"e+	c #B895AD",
"f+	c #781256",
"g+	c #5E0940",
"h+	c #612C4E",
"i+	c #734664",
"j+	c #662A4E",
"k+	c #5B033D",
"l+	c #58033D",
"m+	c #5F0743",
"n+	c #931D6A",
"o+	c #D23A9C",
"p+	c #C93292",
"q+	c #CFA5BD",
"r+	c #CFC3C9",
"s+	c #ECE0EA",
"t+	c #AF7597",
"u+	c #750B52",
"v+	c #7C225E",
"w+	c #8B5E7B",
"x+	c #620744",
"y+	c #5F0642",
"z+	c #751154",
"A+	c #9B1E6C",
"B+	c #94206C",
"C+	c #BE3791",
"D+	c #DA3EA6",
"E+	c #DF3FA8",
"F+	c #CE3194",
"G+	c #E7D6E1",
"H+	c #F4EFF1",
"I+	c #EBE4EA",
"J+	c #A52074",
"K+	c #952C72",
"L+	c #B08DA8",
"M+	c #8D1F65",
"N+	c #8C1A64",
"O+	c #7C1158",
"P+	c #901363",
"Q+	c #850F5C",
"R+	c #AB2780",
"S+	c #CA3198",
"T+	c #C42A8A",
"U+	c #CEA1BE",
"V+	c #EBDEE7",
"W+	c #D5C8D0",
"X+	c #BD2E8B",
"Y+	c #7C0D56",
"Z+	c #A64084",
"`+	c #9E7791",
" @	c #93216B",
".@	c #C2358F",
"+@	c #BF358F",
"@@	c #8F1566",
"#@	c #8C155F",
"$@	c #941562",
"%@	c #C2759F",
"&@	c #DBC3D3",
"*@	c #D1BBC6",
"=@	c #C63D9B",
"-@	c #A12D7A",
";@	c #C57EAE",
">@	c #883A64",
",@	c #831760",
"'@	c #D043A1",
")@	c #DC42A5",
"!@	c #BB328A",
"~@	c #93266B",
"{@	c #962A6A",
"]@	c #CBABBF",
"^@	c #CCB6C2",
"/@	c #CC46A0",
"(@	c #CA55A6",
"_@	c #C18AB0",
":@	c #8B185D",
"<@	c #7E1858",
"[@	c #BE3B8E",
"}@	c #DF44AB",
"|@	c #DD47A9",
"1@	c #A82A7A",
"2@	c #81215C",
"3@	c #772E58",
"4@	c #F0E6EC",
"5@	c #D6C5CF",
"6@	c #CE4BA4",
"7@	c #C854A5",
"8@	c #BB97AD",
"9@	c #9B2770",
"0@	c #9B4676",
"a@	c #D7C3D3",
"b@	c #B13888",
"c@	c #C83D9A",
"d@	c #C03892",
"e@	c #771D55",
"f@	c #520532",
"g@	c #B59CAB",
"h@	c #D5C5CF",
"i@	c #C5469D",
"j@	c #A83E88",
"k@	c #CBB1C3",
"l@	c #A02E77",
"m@	c #B17F9A",
"n@	c #D9C8D2",
"o@	c #8B3C6C",
"p@	c #C33895",
"q@	c #97336E",
"r@	c #6B184C",
"s@	c #653750",
"t@	c #E1D8DE",
"u@	c #B5388A",
"v@	c #AE7F9E",
"w@	c #D6BCCC",
"x@	c #972A6D",
"y@	c #CAAFBE",
"z@	c #E5DAE4",
"A@	c #AF4E8D",
"B@	c #E1CEDD",
"C@	c #A68896",
"D@	c #653951",
"E@	c #DDD7DA",
"F@	c #E5DEE3",
"G@	c #AF3585",
"H@	c #D9CAD4",
"I@	c #CBB0BE",
"J@	c #84235E",
"K@	c #E6DDE4",
"L@	c #D9B6CB",
"M@	c #F3F7F6",
"N@	c #E7E2E1",
"O@	c #DECEDB",
"P@	c #AF5F92",
"Q@	c #BDA6B2",
"R@	c #976E85",
"S@	c #BFA5B6",
"T@	c #DFCDDA",
"U@	c #AE96A4",
"V@	c #E4DAE1",
"                              .                                 ",
"                              +                                 ",
"                              @ #   $                           ",
"                              % &   *                           ",
"                            = - ;   > ,   '                     ",
"                            ) ! ~   { ] ^ /                     ",
"              ( _ : <       [ } | 1 2 3 4 5 6                   ",
"                7 8 9 0 a   b c d e f g h i j                   ",
"                  k l m n   o p q r s t u v w x                 ",
"                    y z A B C D E F G H I J K L                 ",
"                      M N O P Q R S T U V W X                   ",
"                  Y Z `  ...+.@.#.$.%.&.*.=.                    ",
"          -.;.  >.,.'.).!.~.{.].^./.(._.:.                      ",
"          <.[.}.|.1.2.3.4.5.6.7.8.9.0.a.b.c.d.e.f.g.            ",
"            h.i.j.k.l.m.n.o.p.q.r.s.t.u.v.w.x.y.z.A.            ",
"            B.C.D.E.F.G.H.I.J.K.L.M.N.O.P.Q.R.S.T.              ",
"            U.V.W.X.Y.Z.`. +.+++@+#+$+%+&+*+=+-+                ",
"                ;+>+,+'+)+!+~+{+]+^+/+(+_+:+<+                  ",
"                    [+}+|+1+2+3+4+5+6+7+8+9+0+a+b+              ",
"                      c+d+e+f+g+h+i+j+k+l+m+n+o+p+q+            ",
"                      r+s+t+u+v+w+x+y+z+A+B+C+D+E+F+G+          ",
"                      H+I+J+z+K+L+M+N+O+P+Q+R+S+T+U+V+          ",
"                        W+X+Y+Z+`+ @.@+@@@#@$@%@&@              ",
"                        *@=@-@;@>@,@'@)@!@~@{@]@                ",
"                        ^@/@(@_@:@<@[@}@|@1@2@3@4@              ",
"                        5@6@7@8@9@0@a@b@c@d@e@f@g@              ",
"                        h@i@j@k@l@m@  n@o@p@q@r@s@              ",
"                        t@u@v@w@x@y@    z@A@B@C@D@E@            ",
"                        F@G@H@I@J@K@      L@  M@X N@            ",
"                        O@P@  Q@R@                              ",
"                        S@T@  U@V@                              ",
"                                                                "};
