/* XPM */
static char * exit_xpm[] = {
"32 32 380 2",
"  	c None",
". 	c #8FC234",
"+ 	c #6F9336",
"@ 	c #829105",
"# 	c #B4920B",
"$ 	c #D36D11",
"% 	c #D46D11",
"& 	c #D36D12",
"* 	c #D36C10",
"= 	c #D36A11",
"- 	c #D26B11",
"; 	c #D26A11",
"> 	c #D26C10",
", 	c #D26B10",
"' 	c #D46E12",
") 	c #D36E12",
"! 	c #D27029",
"~ 	c #6CA30F",
"{ 	c #8BC812",
"] 	c #2E5B09",
"^ 	c #659E0A",
"/ 	c #86C60A",
"( 	c #AB980B",
"_ 	c #D36C12",
": 	c #D36C11",
"< 	c #D56F12",
"[ 	c #D46F12",
"} 	c #D46E13",
"| 	c #D1723A",
"1 	c #689D35",
"2 	c #569204",
"3 	c #376D05",
"4 	c #6CA70C",
"5 	c #78AC08",
"6 	c #9B500D",
"7 	c #AB530F",
"8 	c #AC5511",
"9 	c #AD5513",
"0 	c #AC5411",
"a 	c #AC530F",
"b 	c #AC5311",
"c 	c #AC5310",
"d 	c #AD5413",
"e 	c #AB5312",
"f 	c #AB520F",
"g 	c #B15711",
"h 	c #D26F15",
"i 	c #D26F14",
"j 	c #64921F",
"k 	c #568C0A",
"l 	c #255303",
"m 	c #692E08",
"n 	c #963A10",
"o 	c #9D3E12",
"p 	c #9D3F14",
"q 	c #9E4015",
"r 	c #9F4115",
"s 	c #9F4116",
"t 	c #A04216",
"u 	c #A04215",
"v 	c #9F4013",
"w 	c #9D3D0F",
"x 	c #9D3D0E",
"y 	c #9E3E0F",
"z 	c #A04112",
"A 	c #A24416",
"B 	c #953B12",
"C 	c #CC6915",
"D 	c #CE6915",
"E 	c #90C722",
"F 	c #81B912",
"G 	c #3E7305",
"H 	c #7D490A",
"I 	c #A04011",
"J 	c #A04010",
"K 	c #A14214",
"L 	c #A04214",
"M 	c #A14216",
"N 	c #9F4114",
"O 	c #A04115",
"P 	c #953911",
"Q 	c #C96315",
"R 	c #CA6415",
"S 	c #90A71C",
"T 	c #9AD714",
"U 	c #629E06",
"V 	c #89650E",
"W 	c #A04114",
"X 	c #9F4012",
"Y 	c #9E4013",
"Z 	c #963B13",
"` 	c #C45F15",
" .	c #C66015",
"..	c #B35416",
"+.	c #9BB211",
"@.	c #7BBC07",
"#.	c #8A7010",
"$.	c #9E4014",
"%.	c #9E3E11",
"&.	c #A04113",
"*.	c #963A0F",
"=.	c #C46018",
"-.	c #C66118",
";.	c #B74F14",
">.	c #C05C18",
",.	c #939A0F",
"'.	c #905110",
").	c #9D3F13",
"!.	c #B26645",
"~.	c #D1A38F",
"{.	c #C88D74",
"].	c #BD7C68",
"^.	c #D1A596",
"/.	c #A4430F",
"(.	c #D1A393",
"_.	c #BD7D69",
":.	c #CA9885",
"<.	c #C48C77",
"[.	c #CC9781",
"}.	c #D1A38E",
"|.	c #D0A28E",
"1.	c #CC9780",
"2.	c #9F3F13",
"3.	c #973A10",
"4.	c #C05B17",
"5.	c #C25C17",
"6.	c #B44E16",
"7.	c #BE5A19",
"8.	c #B55517",
"9.	c #983D12",
"0.	c #C08C7E",
"a.	c #FEFEFE",
"b.	c #F3E9E5",
"c.	c #E4C8BF",
"d.	c #BD816D",
"e.	c #C07D61",
"f.	c #FDFDFC",
"g.	c #C08876",
"h.	c #EDDCD5",
"i.	c #E2CAC1",
"j.	c #EAD6CD",
"k.	c #FAF6F4",
"l.	c #FAF6F5",
"m.	c #EBD6CF",
"n.	c #A04012",
"o.	c #9A3C11",
"p.	c #BE5B19",
"q.	c #B14A16",
"r.	c #BB4316",
"s.	c #B73D34",
"t.	c #754C41",
"u.	c #BA897D",
"v.	c #FDFEFD",
"w.	c #D3B6AE",
"x.	c #B57C6D",
"y.	c #F3ECE9",
"z.	c #E8D5CE",
"A.	c #F4EEEC",
"B.	c #9F4112",
"C.	c #E9DAD5",
"D.	c #DEC8C2",
"E.	c #9D3E11",
"F.	c #E0CECA",
"G.	c #E0CFCB",
"H.	c #9E3F12",
"I.	c #9B3E12",
"J.	c #BA5519",
"K.	c #BB561A",
"L.	c #AF4815",
"M.	c #B92008",
"N.	c #BC150B",
"O.	c #983E15",
"P.	c #B5877D",
"Q.	c #DCCDCB",
"R.	c #B8897F",
"S.	c #9F4218",
"T.	c #EFE7E4",
"U.	c #E9DEDC",
"V.	c #F1E9E7",
"W.	c #9E4116",
"X.	c #E5D9D5",
"Y.	c #DBC7C2",
"Z.	c #A04316",
"`.	c #DDCDCA",
" +	c #DCCECA",
".+	c #A14419",
"++	c #9C3F12",
"@+	c #B85219",
"#+	c #B75219",
"$+	c #A77651",
"%+	c #AC4715",
"&+	c #B04E19",
"*+	c #AE4E17",
"=+	c #9F4212",
"-+	c #B0867C",
";+	c #FEFDFD",
">+	c #C7AEA9",
",+	c #BB9A92",
"'+	c #B07F73",
")+	c #FCFCFB",
"!+	c #A66E60",
"~+	c #FCFBFA",
"{+	c #B4857B",
"]+	c #E4D8D5",
"^+	c #D9C6C2",
"/+	c #A14215",
"(+	c #DBCCCA",
"_+	c #DACDCA",
":+	c #9F4214",
"<+	c #B25318",
"[+	c #9E5B14",
"}+	c #5E9108",
"|+	c #8BC611",
"1+	c #A84312",
"2+	c #B24E17",
"3+	c #B45016",
"4+	c #A24413",
"5+	c #9E4114",
"6+	c #A57063",
"7+	c #D9CFCB",
"8+	c #D8CFCC",
"9+	c #C9B8B3",
"0+	c #B89B95",
"a+	c #CCBAB6",
"b+	c #9A3E14",
"c+	c #CAB8B4",
"d+	c #B99E99",
"e+	c #C6B2AC",
"f+	c #BFA29B",
"g+	c #BFA7A3",
"h+	c #BFA8A4",
"i+	c #995612",
"j+	c #82A608",
"k+	c #6EA008",
"l+	c #477E06",
"m+	c #77AF19",
"n+	c #A74212",
"o+	c #B04C16",
"p+	c #B35016",
"q+	c #A64916",
"r+	c #A14213",
"s+	c #A0400F",
"t+	c #A14314",
"u+	c #9E4112",
"v+	c #90560F",
"w+	c #7E770C",
"x+	c #7D900C",
"y+	c #599604",
"z+	c #6FAA0B",
"A+	c #95C91A",
"B+	c #A33E10",
"C+	c #AC4815",
"D+	c #B14F14",
"E+	c #A64914",
"F+	c #A04213",
"G+	c #9E3F13",
"H+	c #9F4015",
"I+	c #9D3F12",
"J+	c #838F0B",
"K+	c #869609",
"L+	c #7E730D",
"M+	c #5E8509",
"N+	c #538E04",
"O+	c #95CF13",
"P+	c #A03B0F",
"Q+	c #A94613",
"R+	c #A74B14",
"S+	c #9F4215",
"T+	c #A14113",
"U+	c #9E4012",
"V+	c #8D5F0F",
"W+	c #86770E",
"X+	c #9A4715",
"Y+	c #9F4113",
"Z+	c #9C3E13",
"`+	c #798A0A",
" @	c #7BB90B",
".@	c #9ED816",
"+@	c #7BAD13",
"@@	c #478204",
"#@	c #599506",
"$@	c #5D950E",
"%@	c #82B419",
"&@	c #9E3A0E",
"*@	c #A74513",
"=@	c #B04F14",
"-@	c #A84A10",
";@	c #9E3E10",
">@	c #9E3F0F",
",@	c #87870A",
"'@	c #7CAC05",
")@	c #8F880A",
"!@	c #7B8D09",
"~@	c #9B3D0F",
"{@	c #78630A",
"]@	c #696D07",
"^@	c #5D9908",
"/@	c #598F0E",
"(@	c #5A8E0C",
"_@	c #548F05",
":@	c #8CC611",
"<@	c #A6DD1E",
"[@	c #AE6F61",
"}@	c #A54312",
"|@	c #B25310",
"1@	c #AE4E10",
"2@	c #AE4D0F",
"3@	c #AD4D0F",
"4@	c #A8620F",
"5@	c #77B902",
"6@	c #A75B0F",
"7@	c #AE4E11",
"8@	c #96880D",
"9@	c #A4690D",
"0@	c #95910C",
"a@	c #8E5E0C",
"b@	c #6B9705",
"c@	c #78B60A",
"d@	c #80B812",
"e@	c #4F830A",
"f@	c #366B03",
"g@	c #518C05",
"h@	c #6BA509",
"i@	c #A55640",
"j@	c #A24211",
"k@	c #94700C",
"l@	c #7CB404",
"m@	c #A14311",
"n@	c #995210",
"o@	c #966A0F",
"p@	c #9D5310",
"q@	c #658009",
"r@	c #76B606",
"s@	c #467D05",
"t@	c #619E06",
"u@	c #57900A",
"v@	c #4C820D",
"w@	c #488306",
"x@	c #6DAA08",
"y@	c #77B20D",
"z@	c #59920B",
"A@	c #9D3A0F",
"B@	c #9C3A0E",
"C@	c #9D3A0E",
"D@	c #9C390D",
"E@	c #9C390E",
"F@	c #9C390F",
"G@	c #9D390F",
"H@	c #973912",
"I@	c #98520D",
"J@	c #7BBB1F",
"K@	c #939123",
"L@	c #9E3D11",
"M@	c #9D3C0F",
"N@	c #9E3D10",
"O@	c #88590B",
"P@	c #6C9521",
"Q@	c #4C8405",
"R@	c #5F9A06",
"S@	c #528125",
"T@	c #5C9A04",
"U@	c #76B20B",
"V@	c #9DD814",
"W@	c #A4DB1B",
"X@	c #7ABA08",
"Y@	c #92CC3A",
"Z@	c #96D410",
"`@	c #9DD72D",
" #	c #9FD347",
".#	c #70A511",
"+#	c #67933C",
"@#	c #7EB90E",
"##	c #89C90B",
"$#	c #79B50C",
"%#	c #548E0A",
"&#	c #69A220",
"*#	c #6BA60B",
"=#	c #649E0B",
"-#	c #548B0B",
";#	c #96CE17",
"                                                                ",
"                                                                ",
"                                                                ",
"                                                                ",
"                                                                ",
"    .     + @ # $ % $ & * = - ; = > , $ ' ' ) $ $ !             ",
"    ~ { ] ^ / ( & - _ _ _ : : _ _ _ ' < [ ' ' } } } |           ",
"    1 2 3 4 5 6 7 8 9 9 0 a 7 a a b b c b d e f g h i           ",
"      j k l m n o p q q r s t u v w x y y y z A B C D           ",
"      E F G H I I J J J J J J J I K A L M N v O P Q R           ",
"      S T U V W u O N u u O N N u u W X Y N r O Z `  .          ",
"      ..+.@.#.u M W $.$.r N Y u O %.w v L &.z z *.=.-.          ",
"      ;.>.,.'.).!.~.~.{.].^./.(._.:.<.[.}.|.1.2.3.4.5.          ",
"      6.7.8.9.N 0.a.b.c.d.a.e.f.g.h.i.j.k.l.m.n.o.p.7.          ",
"      q.r.s.t.&.u.v.w.x.n.y.z.A.B.C.D.E.F.G.H.W I.J.K.          ",
"      L.M.N.O.$.P.v.Q.R.S.T.U.V.W.X.Y.Z.`. +v .+++@+#+$+        ",
"      %+&+*+=+$.-+;+>+,+'+)+!+~+{+]+^+/+(+_+&.&.:+<+[+}+|+      ",
"      1+2+3+4+5+6+7+8+9+0+a+b+c+d+e+f+O g+h+&./+i+j+k+l+m+      ",
"      n+o+p+q+L /+K n.&.A r+J J s+J J J K t+X u+v+w+x+y+z+A+    ",
"      B+C+D+E+X F+n.X v H.H.G+N O r H+G+I+o o J+K+L+M+N+O+      ",
"      P+Q+D+R+u u u S+X T+K u U+V+W+X+M Y+N Z+`+ @.@+@@@#@$@%@  ",
"      &@*@=@-@y y y y ;@>@y >@,@'@)@!@>@>@~@{@]@^@/@(@_@:@<@    ",
"      [@}@}@|@1@1@2@3@2@1@1@4@5@6@7@8@9@0@a@b@c@d@e@f@g@h@      ",
"        i@j@j@j@j@j@j@j@t+j@k@l@m@n@o@p@q@r@s@t@u@v@w@x@y@z@    ",
"          A@B@C@D@E@F@G@H@A@I@J@K@L@M@N@O@P@Q@R@S@T@g@U@V@W@    ",
"                                X@Y@Z@`@ #.#+#@#  ##$#%#        ",
"                                  &#*#=#-#          ;#          ",
"                                                                ",
"                                                                ",
"                                                                ",
"                                                                ",
"                                                                "};
