/* XPM */
static char *dd5922ada4f24bc8a0bebed026d0260dJGN3gCRZGKLvKEPy[] = {
/* columns rows colors chars-per-pixel */
"32 32 63 1 ",
"  c #111224",
". c #1F2227",
"X c #1F2428",
"o c #202329",
"O c #23262B",
"+ c #242529",
"@ c #23262C",
"# c #25272D",
"$ c #24282B",
"% c #25282F",
"& c #232730",
"* c #242730",
"= c #262932",
"- c #272D33",
"; c #272B34",
": c #272D34",
"> c #282B32",
", c #292C33",
"< c #282B34",
"1 c #282C35",
"2 c #2B2F38",
"3 c #2D3037",
"4 c #2E323B",
"5 c #2F333C",
"6 c #2F343D",
"7 c #30333C",
"8 c #30343D",
"9 c #343441",
"0 c #323943",
"q c #343944",
"w c #393D47",
"e c #343A48",
"r c #363C48",
"t c #393F48",
"y c #383F4F",
"u c #3C4252",
"i c #3F4553",
"p c #414856",
"a c #444C59",
"s c #47505F",
"d c #455161",
"f c #495263",
"g c #4B5366",
"h c #4C5364",
"j c #4B5465",
"k c #4D5667",
"l c #4E5768",
"z c #50596A",
"x c #51596D",
"c c #535C6D",
"v c #555E6F",
"b c #565F70",
"n c #576071",
"m c #586172",
"M c #5E6778",
"N c #737D8D",
"B c #8691A3",
"V c #8E97A8",
"C c #A4ADBE",
"Z c #A8AEBE",
"A c #A7AEC1",
"S c #A8B1C1",
"D c #ACB5C6",
/* pixels */
"======85858888884+O+#@4=====588;",
"=====88=5====581OnnnnnV====8====",
"=======5855=8OX8+nnnnnu#$OOO=5=8",
"======11==8OOOO888==&==bvnnO4=88",
"==5=:8558=88gO@888====lknnnO8881",
"======88888818*11888;=8ibnrO8===",
"======nnnnx88888881=,887=#O#====",
"==8Zc=nnnnn8=8888888==8===5=====",
"8=5hnOlkjkk===88858=85=85858====",
"8888==8=8888888848458===88815888",
"=888==848888885888888888888==888",
"88888488887=88888188887@5*8=8888",
"88858=8888888=888..888Mnnnnz8O=8",
"BAC8842&84nn58@OOOOO88bnnnnmSfgd",
"nnn=*88=5p%18OOOOOOO58eeer0@knnn",
"nnbOat6=81=888OOOO85=8885===knnn",
"O#O==5=58888888-O#8nnnnnnnj8OOOO",
"=1=8588@O@4=8888885nnnnnnnk5==8=",
"8==<nnbnnnng8888888nnnnnnzk=8==8",
"8888nnknnnnn4888884ekkkkkyr588==",
";17==O>43%%44,8Dnbzjkj8888===5==",
"=88=8osnnnnnnnkjnnnnnn848=======",
"=845*annnnnnnnkknnnnnb888===@===",
"=5888hnnnnnnnvk8=##OO6kkkkkkjN==",
"8=8=5eknbzkkbnkknnnnnOnnnnnnnv==",
"888888884@OOOOOknnnnnOknnnnnnc==",
"58O.O8548558*81knnnnnOn2kvnnnr==",
"8=OOO88888*48==ebnnnbO=575558888",
"888qw88888==4==@OOO@O8=88===5===",
"55855555555555555555555555555548",
"    9                           ",
"                                "
};
